<?xml version="1.0" encoding="UTF-8"?>
<svg xmlns="http://www.w3.org/2000/svg" xmlns:xlink="http://www.w3.org/1999/xlink" width="24" height="24" viewBox="0 0 24 24" version="1.1">
<g id="surface1">
<path style=" stroke:none;fill-rule:nonzero;fill-opacity:1;" d="M 16.5 2.863281 L 16.5 20.863281 C 16.5 22.878906 17.890625 24 19.363281 24 C 20.726562 24 22.226562 23.046875 22.226562 20.863281 L 22.226562 3 C 22.226562 1.152344 20.863281 0 19.363281 0 C 17.863281 0 16.5 1.273438 16.5 2.863281 Z M 16.5 2.863281 "/>
<path style=" stroke:none;fill-rule:nonzero;fill-opacity:1;" d="M 9 12 L 9 20.863281 C 9 22.878906 10.390625 24 11.863281 24 C 13.226562 24 14.726562 23.046875 14.726562 20.863281 L 14.726562 12.136719 C 14.726562 10.289062 13.363281 9.136719 11.863281 9.136719 C 10.363281 9.136719 9 10.410156 9 12 Z M 9 12 "/>
<path style=" stroke:none;fill-rule:nonzero;fill-opacity:1;" d="M 7.226562 21.136719 C 7.226562 22.71875 5.945312 24 4.363281 24 C 2.78125 24 1.5 22.71875 1.5 21.136719 C 1.5 19.554688 2.78125 18.273438 4.363281 18.273438 C 5.945312 18.273438 7.226562 19.554688 7.226562 21.136719 Z M 7.226562 21.136719 "/>
</g>
</svg>
